# xmcd
#
# Track frame offsets: 
#        150
#        19511
#        38269
#        59893
#        83040
#        100396
#        121537
#        138743
#        153497
#        170365
#        188482
#        205136
#        226839
#        248012
#        267072
#        287643
#        306076
#
# Disc length: 4333 seconds
#
# Revision: 0
# Processed by: cddbd v1.5.2PL0 Copyright (c) Steve Scherf et al.
# Submitted via: ExactAudioCopy v0.99pb5
#
DISCID=d610eb11
DTITLE=Nop ponchamni - NOP FROM DIFFERENT SCENE
DYEAR=2008
DGENRE=Pop
TTITLE0=แสงหนึ่ง
TTITLE1=เมื่อวันที่ฉันได้พบเธอ
TTITLE2=เหตุผลที่คนควรอยู่ด้วยกัน
TTITLE3=Pass The Love Forward
TTITLE4=แค่เพียงฉันและเธอ
TTITLE5=เพื่อเธอ
TTITLE6=บ้านของเรา
TTITLE7=ตลอดไป
TTITLE8=Baby I Love You
TTITLE9=จดหมาย
TTITLE10=รักที่มากกว่า
TTITLE11=เธอเองจะได้ยินอะไรในใจฉันไหม
TTITLE12=เรา
TTITLE13=หัวใจของเธอ
TTITLE14=ฝรั่งใจ
TTITLE15=จะกลับมาบอกอีกครั้ง
TTITLE16=ฤดูที่แตกต่าง 12th
EXTD=
EXTT0=
EXTT1=
EXTT2=
EXTT3=
EXTT4=
EXTT5=
EXTT6=
EXTT7=
EXTT8=
EXTT9=
EXTT10=
EXTT11=
EXTT12=
EXTT13=
EXTT14=
EXTT15=
EXTT16=
PLAYORDER=
